# xmcd
#
# Track frame offsets:
#	150
#	21762
#	50723
#	69046
#	105077
#	129642
#	149989
#	187407
#	208839
#
# Disc length: 3073 seconds
#
# Revision: 0
# Processed by: cddbd v1.5.2PL0 Copyright (c) Steve Scherf et al.
# Submitted via: EZCDAudioConverter 6.0.0.1
#
DISCID=8b0bff09
DTITLE=Julian Sas - Feelin' Alive
DYEAR=2017
DGENRE=Blues Rock
TTITLE0=Jump For Joy
TTITLE1=High And Low
TTITLE2=Did You Ever Wonder
TTITLE3=Fear Of Falling
TTITLE4=Mercy
TTITLE5=Coming Home
TTITLE6=Helping Hand
TTITLE7=Highway 61 Revisited
TTITLE8=Bullfrog Blues
EXTD=
EXTT0=
EXTT1=
EXTT2=
EXTT3=
EXTT4=
EXTT5=
EXTT6=
EXTT7=
EXTT8=
PLAYORDER=
